<svg xmlns="http://www.w3.org/2000/svg" width="64.628" height="62.361" viewBox="0 0 64.628 62.361"><defs><style>.a{fill:#fff;}</style></defs><path class="a" d="M64.587,39.584A32.768,32.768,0,0,0,33.856,12.513V9.993a1.543,1.543,0,1,0-3.086,0v2.52A32.767,32.767,0,0,0,.022,39.68h0a1.543,1.543,0,0,0,2.992.726,6.559,6.559,0,0,1,12.447.019,1.543,1.543,0,0,0,2.93,0,6.558,6.558,0,0,1,12.379-.21v23.6a3.886,3.886,0,0,1-3.757,3.908,3.761,3.761,0,0,1-3.757-3.757,1.543,1.543,0,0,0-3.086,0,6.851,6.851,0,0,0,6.843,6.843,6.7,6.7,0,0,0,4.86-2.1,7.031,7.031,0,0,0,1.983-4.893V40.193a6.559,6.559,0,0,1,12.371.233,1.543,1.543,0,0,0,2.93,0,6.559,6.559,0,0,1,12.453,0,1.543,1.543,0,0,0,1.415,1.057h.06a1.544,1.544,0,0,0,1.5-1.9Zm-9.2-6.742a9.629,9.629,0,0,0-7.691,3.821,9.652,9.652,0,0,0-15.383,0,9.652,9.652,0,0,0-15.383,0A9.66,9.66,0,0,0,4.877,33.878a29.706,29.706,0,0,1,54.874,0A9.638,9.638,0,0,0,55.383,32.842Z" transform="translate(0 -8.45)"/></svg>