<svg xmlns="http://www.w3.org/2000/svg" width="41.667" height="50" viewBox="0 0 41.667 50"><defs><style>.a{fill:#fe611a;}</style></defs><g transform="translate(-2)"><g transform="translate(6.167)"><path class="a" d="M36.292,37.5H5.042A1.042,1.042,0,0,1,4,36.458V5.208A5.216,5.216,0,0,1,9.208,0H32.125a5.216,5.216,0,0,1,5.208,5.208v31.25A1.042,1.042,0,0,1,36.292,37.5ZM6.083,35.417H35.25V5.208a3.129,3.129,0,0,0-3.125-3.125H9.208A3.129,3.129,0,0,0,6.083,5.208Z" transform="translate(-4)"/></g><g transform="translate(2 35.417)"><path class="a" d="M40.542,23.25H5.125a3.125,3.125,0,1,1,0-6.25H40.542a3.125,3.125,0,0,1,0,6.25ZM5.125,19.083a1.042,1.042,0,1,0,0,2.083H40.542a1.042,1.042,0,1,0,0-2.083Z" transform="translate(-2 -17)"/></g><g transform="translate(21.792 25)"><path class="a" d="M24,24.5H12.542A1.042,1.042,0,0,1,11.5,23.458V13.042A1.042,1.042,0,0,1,12.542,12H24a1.042,1.042,0,0,1,1.042,1.042V23.458A1.042,1.042,0,0,1,24,24.5ZM13.583,22.417h9.375V14.083H13.583Z" transform="translate(-11.5 -12)"/></g><g transform="translate(16.583 14.583)"><path class="a" d="M20.458,19.5H10.042A1.042,1.042,0,0,1,9,18.458V8.042A1.042,1.042,0,0,1,10.042,7H20.458A1.042,1.042,0,0,1,21.5,8.042V18.458A1.042,1.042,0,0,1,20.458,19.5Zm-9.375-2.083h8.333V9.083H11.083Z" transform="translate(-9 -7)"/></g><g transform="translate(10.333 25)"><path class="a" d="M18.5,24.5H7.042A1.042,1.042,0,0,1,6,23.458V13.042A1.042,1.042,0,0,1,7.042,12H18.5a1.042,1.042,0,0,1,1.042,1.042V23.458A1.042,1.042,0,0,1,18.5,24.5ZM8.083,22.417h9.375V14.083H8.083Z" transform="translate(-6 -12)"/></g><g transform="translate(21.792 14.583)"><path class="a" d="M12.542,12.208A1.042,1.042,0,0,1,11.5,11.167V8.042a1.042,1.042,0,0,1,2.083,0v3.125A1.042,1.042,0,0,1,12.542,12.208Z" transform="translate(-11.5 -7)"/></g><g transform="translate(16.583 25)"><path class="a" d="M10.042,17.208A1.042,1.042,0,0,1,9,16.167V13.042a1.042,1.042,0,1,1,2.083,0v3.125A1.042,1.042,0,0,1,10.042,17.208Z" transform="translate(-9 -12)"/></g><g transform="translate(27 25)"><path class="a" d="M15.042,17.208A1.042,1.042,0,0,1,14,16.167V13.042a1.042,1.042,0,0,1,2.083,0v3.125A1.042,1.042,0,0,1,15.042,17.208Z" transform="translate(-14 -12)"/></g><g transform="translate(10.333 4.167)"><path class="a" d="M29.958,4.083H7.042A1.042,1.042,0,0,1,7.042,2H29.958a1.042,1.042,0,1,1,0,2.083Z" transform="translate(-6 -2)"/></g><g transform="translate(10.333 8.333)"><path class="a" d="M29.958,6.083H7.042A1.042,1.042,0,0,1,7.042,4H29.958a1.042,1.042,0,1,1,0,2.083Z" transform="translate(-6 -4)"/></g><g transform="translate(29.083 39.583)"><path class="a" d="M20.208,29.417H18.125A3.129,3.129,0,0,1,15,26.292v-6.25A1.042,1.042,0,0,1,16.042,19h6.25a1.042,1.042,0,0,1,1.042,1.042v6.25A3.129,3.129,0,0,1,20.208,29.417Zm-3.125-8.333v5.208a1.042,1.042,0,0,0,1.042,1.042h2.083a1.042,1.042,0,0,0,1.042-1.042V21.083Z" transform="translate(-15 -19)"/></g><g transform="translate(8.25 39.583)"><path class="a" d="M10.208,29.417H8.125A3.129,3.129,0,0,1,5,26.292v-6.25A1.042,1.042,0,0,1,6.042,19h6.25a1.042,1.042,0,0,1,1.042,1.042v6.25A3.129,3.129,0,0,1,10.208,29.417ZM7.083,21.083v5.208a1.042,1.042,0,0,0,1.042,1.042h2.083a1.042,1.042,0,0,0,1.042-1.042V21.083Z" transform="translate(-5 -19)"/></g><g transform="translate(14.5 43.75)"><path class="a" d="M23.625,23.083H9.042a1.042,1.042,0,1,1,0-2.083H23.625a1.042,1.042,0,1,1,0,2.083Z" transform="translate(-8 -21)"/></g></g></svg>