<svg xmlns="http://www.w3.org/2000/svg" width="60.634" height="79" viewBox="0 0 60.634 79"><defs><style>.a{fill:#fff;}</style></defs><path class="a" d="M70.2,36.167h4.377a21.628,21.628,0,0,0,37.353,6.583h5.627a1.89,1.89,0,0,0,1.891-1.891V36.167h.852a3.723,3.723,0,0,0,3.719-3.719V22.94A3.725,3.725,0,0,0,121,19.288a23.444,23.444,0,0,0-8.882-13.86A27.977,27.977,0,0,0,95.068,0c-13.1,0-23.427,7.757-25.951,19.382a3.726,3.726,0,0,0-2.635,3.558v9.508A3.723,3.723,0,0,0,70.2,36.167Zm.062-3.781V23h4.075a21.671,21.671,0,0,0-.674,9.384Zm24.8,14.679a17.874,17.874,0,1,1,14.946-8.1H93.971a1.891,1.891,0,0,0,0,3.781H106.7A17.78,17.78,0,0,1,95.068,47.065Zm20.6-8.1h-1.292a21.524,21.524,0,0,0,1.182-2.8h.11v2.8Zm4.571-6.583h-3.766A21.672,21.672,0,0,0,115.8,23h4.441v9.384ZM95.068,3.781c10.9,0,19.523,6.133,22.022,15.44h-2.83a21.631,21.631,0,0,0-38.382,0H73.046C75.542,9.919,84.185,3.781,95.068,3.781Z" transform="translate(-64.736)"/><path class="a" d="M105.609,314.352H66.743a10.9,10.9,0,0,0-10.884,10.884v14.547a1.891,1.891,0,1,0,3.781,0V325.236a7.111,7.111,0,0,1,7.1-7.1h38.866a7.111,7.111,0,0,1,7.1,7.1v14.547a1.891,1.891,0,0,0,3.781,0V325.236A10.9,10.9,0,0,0,105.609,314.352Z" transform="translate(-55.859 -262.673)"/></svg>