<svg xmlns="http://www.w3.org/2000/svg" width="50.966" height="51" viewBox="0 0 50.966 51"><defs><style>.a{fill:#fe611a;}</style></defs><path class="a" d="M48.922,19.913H47L29.774,11.858A5.06,5.06,0,0,0,26.8,4.048V1.182a1.182,1.182,0,0,0-2.365,0V5.091a1.182,1.182,0,0,0,1.182,1.182,2.7,2.7,0,0,1,1.958,4.555l-1.662-.778a1.358,1.358,0,0,0-1.07,0l-1.322.619a2.686,2.686,0,0,1-.6-1.7,1.182,1.182,0,1,0-2.365,0,5.032,5.032,0,0,0,.792,2.714L3.755,19.913H2.378A2.213,2.213,0,0,0,.167,22.124V48.789A2.213,2.213,0,0,0,2.378,51H48.922a2.213,2.213,0,0,0,2.211-2.211V22.124A2.213,2.213,0,0,0,48.922,19.913ZM23.206,13.426a5.058,5.058,0,0,0,4.59.117l13.619,6.37H9.337Zm1.262,8.852V48.635H12.609V22.278Zm2.365,0H38.691V48.635H26.832Zm-24.3,0h7.712V48.635H2.532ZM48.768,48.635H41.056V22.278h7.712Z" transform="translate(-0.167)"/></svg>