<svg xmlns="http://www.w3.org/2000/svg" width="95.405" height="75.428" viewBox="0 0 95.405 75.428"><defs><style>.a{fill:#fff;}</style></defs><path class="a" d="M95.4,114.1c-.006-.077-.574-7.787-1.728-16.237l-.026-.189c-.772-5.658-1.733-12.7-5.1-18.6-4.1-7.18-10.858-10.821-20.077-10.821H60.678a2.248,2.248,0,0,0-2.248,2.248v4.02h-10.1V55.308a4.207,4.207,0,0,0-4.2-4.2H19.111a4.207,4.207,0,0,0-4.2,4.2v10H7.255a4.207,4.207,0,0,0-4.2,4.2v27.2h-.8A2.248,2.248,0,0,0,0,98.958v15.307a4.18,4.18,0,0,0,4.176,4.176H8.443a9.913,9.913,0,0,0,19.489,0H68.042a9.913,9.913,0,0,0,19.489,0h3.7a4.18,4.18,0,0,0,4.176-4.176Q95.405,114.184,95.4,114.1ZM87.8,89.961H74.329V73.432C82.888,75.6,86.162,82.663,87.8,89.961ZM58.43,96.711H36.084V79.022H58.43ZM19.4,55.6H43.837V74.527H36.084V69.511a4.207,4.207,0,0,0-4.2-4.2H19.4ZM7.548,69.8h24.04V96.711H7.548V69.8ZM4.5,101.206H58.43v12.74h-30.7a9.913,9.913,0,0,0-19.093,0H4.5Zm13.692,20.832a5.42,5.42,0,1,1,5.42-5.42A5.426,5.426,0,0,1,18.187,122.039Zm59.6,0a5.42,5.42,0,1,1,5.42-5.42A5.426,5.426,0,0,1,77.787,122.039Zm9.546-8.093a9.913,9.913,0,0,0-19.093,0H62.926V72.754h5.54c.468,0,.923.013,1.368.034v19.42a2.248,2.248,0,0,0,2.248,2.248H88.642c.2,1.31.38,2.6.549,3.829l.026.189c.97,7.1,1.519,13.672,1.662,15.472H87.333Z" transform="translate(0 -51.106)"/></svg>