<svg xmlns="http://www.w3.org/2000/svg" width="61.278" height="40" viewBox="0 0 61.278 40"><defs><style>.a{fill:#fe611a;}</style></defs><path class="a" d="M61.252,116.579c-.239-1.219-2.351-11.952-2.873-13.519a29.074,29.074,0,0,0-8.061-11.474C46.374,88.033,42.288,86,39.107,86H8.164A2.912,2.912,0,0,0,5.256,88.9v4.57H3.113a1.423,1.423,0,1,0,0,2.845H5.256v3.394H1.423a1.423,1.423,0,1,0,0,2.845H5.256v14.294a2.912,2.912,0,0,0,2.908,2.908h3.547a7.331,7.331,0,0,0,14.5,0h13.05a7.331,7.331,0,0,0,14.5,0H58.37a2.912,2.912,0,0,0,2.908-2.908A1.434,1.434,0,0,0,61.252,116.579ZM55.516,103.5H40.856V89.1C46.05,90.491,53.248,97.4,55.516,103.5ZM18.96,123.151a4.485,4.485,0,1,1,4.485-4.485A4.49,4.49,0,0,1,18.96,123.151Zm27.547,0a4.485,4.485,0,1,1,4.485-4.485A4.49,4.49,0,0,1,46.507,123.151ZM58.3,116.915H53.624a7.33,7.33,0,0,0-14.236,0H26.077a7.33,7.33,0,0,0-14.236,0H8.164a.063.063,0,0,1-.063-.063V102.559H25.537a1.423,1.423,0,1,0,0-2.845H8.1V96.32h8.025a1.423,1.423,0,1,0,0-2.845H8.1V88.9a.063.063,0,0,1,.063-.063H38.01v16.08a1.423,1.423,0,0,0,1.423,1.423h16.82c.607,2.766,1.439,7.2,2.147,10.483C58.414,116.894,58.373,116.915,58.3,116.915Z" transform="translate(0 -85.996)"/></svg>