<svg xmlns="http://www.w3.org/2000/svg" width="85.017" height="78.484" viewBox="0 0 85.017 78.484"><defs><style>.a{fill:#fff;}</style></defs><path class="a" d="M83.23,31.869a6.7,6.7,0,0,1-6.075-6.7,6.786,6.786,0,0,1,.12-1.26A1.977,1.977,0,0,0,76,21.682a47.49,47.49,0,0,0-31.517.029,1.977,1.977,0,0,0-1.2,2.2,6.726,6.726,0,0,1-6.094,7.97,1.977,1.977,0,0,0-1.827,1.971c0,3.97,1.578,9.038,4.383,14.372H3.308A3.311,3.311,0,0,0,0,51.53V94.183A3.311,3.311,0,0,0,3.308,97.49H59.022a3.311,3.311,0,0,0,3.307-3.307V68.4C66.8,67,72.092,61.494,75.874,56.293c5.725-7.87,9.143-16.266,9.143-22.457A1.976,1.976,0,0,0,83.23,31.869ZM25.452,52.175H36.727V78.148H25.452ZM3.953,93.537V52.175H21.5V80.124A1.977,1.977,0,0,0,23.475,82.1H38.7a1.976,1.976,0,0,0,1.977-1.977V52.175h1.348c.8,1.272,1.653,2.547,2.571,3.815,3.889,5.376,9.3,11.072,13.777,12.444v25.1H3.953ZM72.678,53.968C67.564,61,62.475,64.792,60.283,64.792c-2.152,0-7.257-3.9-12.481-11.119-4.685-6.477-7.781-13.248-8.375-18.18A10.74,10.74,0,0,0,47.363,25.17q0-.138,0-.276a44.563,44.563,0,0,1,13.065-1.934,42.1,42.1,0,0,1,12.781,1.948q0,.131,0,.262a10.636,10.636,0,0,0,7.771,10.285C80.418,40.641,77.346,47.55,72.678,53.968Z" transform="translate(0 -19.006)"/><path class="a" d="M313.853,104.473l-10.175,10.175-2.842-2.842a1.977,1.977,0,0,0-2.8,2.8l4.24,4.24a1.977,1.977,0,0,0,2.8,0l11.573-11.573a1.977,1.977,0,1,0-2.8-2.8Z" transform="translate(-246.335 -89.303)"/></svg>