<svg xmlns="http://www.w3.org/2000/svg" width="62.879" height="62.001" viewBox="0 0 62.879 62.001"><defs><style>.a{fill:#fff;}</style></defs><path class="a" d="M60.345,26.308H30.053V7.62a2.489,2.489,0,0,0-2.486-2.486h-7.95a6.755,6.755,0,0,0-9.179,0H2.486A2.489,2.489,0,0,0,0,7.62V41.712A2.489,2.489,0,0,0,2.486,44.2H17.909V62.8a2.537,2.537,0,0,0,2.534,2.534h39.9A2.537,2.537,0,0,0,62.879,62.8V28.841A2.537,2.537,0,0,0,60.345,26.308ZM34.859,29.333h11.07v19.3l-5.012-1.846a1.513,1.513,0,0,0-1.046,0l-5.012,1.846v-19.3ZM15.026,6.36a3.75,3.75,0,0,1,3.74,3.54H11.287A3.75,3.75,0,0,1,15.026,6.36Zm-12,1.8H8.542A6.739,6.739,0,0,0,8.261,9.9H5.316a1.513,1.513,0,1,0,0,3.025H24.737a1.513,1.513,0,0,0,0-3.025H21.792a6.745,6.745,0,0,0-.281-1.742h5.517V41.173h-24ZM59.854,62.311H20.934V44.2h6.632a2.489,2.489,0,0,0,2.486-2.486V29.333h1.781V50.8a1.513,1.513,0,0,0,2.035,1.419l6.525-2.4,6.525,2.4A1.513,1.513,0,0,0,48.954,50.8V29.333h10.9V62.311Z" transform="translate(0 -3.335)"/><path class="a" d="M68.838,148.035,61.469,155.4l-2.752-2.752a1.513,1.513,0,0,0-2.139,2.139l3.821,3.821a1.513,1.513,0,0,0,2.139,0l8.439-8.439a1.513,1.513,0,0,0-2.139-2.139Z" transform="translate(-48.751 -128.617)"/></svg>