<svg xmlns="http://www.w3.org/2000/svg" width="61.509" height="50" viewBox="0 0 61.509 50"><defs><style>.a{fill:#fe611a;}</style></defs><path class="a" d="M57.771,80.54a3.191,3.191,0,0,0-.778.1,83.5,83.5,0,0,1-13.839,2.6c-.2.013-.45.019-.747.019-3.138,0-8.1-.58-9-1.052a3.343,3.343,0,0,1-1.292-1.139h7.136a3.872,3.872,0,0,0,3.768-2.473H57.3A3.392,3.392,0,0,0,60.686,75.2V49.442A3.392,3.392,0,0,0,57.3,46.054H27.638a3.392,3.392,0,0,0-3.388,3.388V71.225c-3.082.1-7.336.991-10.046,3.229-1.089.9-1.873,1.513-2.5,2.005-.408.319-.76.594-1.092.866-1.338,1.1-2.493,2.047-9.171,2.047A1.437,1.437,0,0,0,0,80.81V94.617A1.437,1.437,0,0,0,1.921,95.97c5.7-2.039,6.711-2.336,9.164-3.054l.221-.064c.2-.06.4-.12.6-.179a10.9,10.9,0,0,1,3.7-.617,42.516,42.516,0,0,1,7.854,1.035c6.9,1.382,10.219,1.987,13.09,1.987h0a35.967,35.967,0,0,0,5.159-.474A65.673,65.673,0,0,0,58,89.163c1.311-.69,3.506-1.845,3.506-4.31v-.094C61.509,82.763,59.974,80.54,57.771,80.54ZM39.181,48.928h6.574V60.869H39.181Zm-11.543,0h8.669V62.306a1.437,1.437,0,0,0,1.437,1.437h9.448a1.437,1.437,0,0,0,1.437-1.437V48.928H57.3a.515.515,0,0,1,.515.515V75.2a.515.515,0,0,1-.515.515H43.062a3.872,3.872,0,0,0-3.577-3c-1.719-.111-4.455-.443-7.1-.764-1.931-.234-3.776-.458-5.262-.6V49.442A.515.515,0,0,1,27.638,48.928Zm31,35.925c0,.559-.46.972-1.97,1.767a63.089,63.089,0,0,1-15.358,5.138,33.718,33.718,0,0,1-4.758.445c-2.469,0-5.293-.482-12.526-1.931A45.039,45.039,0,0,0,15.6,89.181a13.757,13.757,0,0,0-4.541.743c-.184.056-.371.113-.565.17l-.22.064c-2.2.644-3.272.957-7.4,2.422V82.232c5.993-.138,7.711-1.168,9.557-2.684.3-.25.644-.516,1.038-.823.644-.5,1.446-1.13,2.565-2.054,2.159-1.784,5.991-2.582,8.831-2.582.327,0,.637.011.921.033,1.55.119,3.835.4,6.253.69,2.685.326,5.461.662,7.26.779a1.038,1.038,0,0,1,1,1.019c.006.1.014.558.017.912,0,.457-.64.67-1.073.67H30.235A1.437,1.437,0,0,0,28.8,79.556a5.8,5.8,0,0,0,3.27,5.192c1.851.969,8.145,1.38,10.337,1.38.356,0,.668-.008.926-.024a85.886,85.886,0,0,0,14.362-2.68.313.313,0,0,1,.077-.01c.325,0,.864.652.864,1.345v.093Z" transform="translate(0 -46.054)"/></svg>