<svg xmlns="http://www.w3.org/2000/svg" width="48.706" height="62.001" viewBox="0 0 48.706 62.001"><defs><style>.a{fill:#fff;}</style></defs><g transform="translate(-51.999)"><path class="a" d="M95.656,0H57.049A5.055,5.055,0,0,0,52,5.05V38.031a5.056,5.056,0,0,0,4.6,5.029V45H55.323a1.47,1.47,0,0,0-1.47,1.47v5.753a1.47,1.47,0,0,0,1.47,1.47h2.557v6.839A1.47,1.47,0,0,0,59.35,62h5.625a1.47,1.47,0,0,0,1.47-1.47V53.691H86.259v6.839A1.47,1.47,0,0,0,87.729,62h5.625a1.47,1.47,0,0,0,1.47-1.47V53.691h2.557a1.47,1.47,0,0,0,1.47-1.47V46.469A1.47,1.47,0,0,0,97.381,45H96.1V43.06a5.056,5.056,0,0,0,4.6-5.029V5.05A5.055,5.055,0,0,0,95.656,0ZM63.5,59.061H60.82V53.691H63.5Zm28.38,0H89.2V53.691h2.685Zm1.278-29.019H59.541V16.618H93.163Zm2.748,20.71H56.793V47.939H95.911v2.812ZM59.541,45V32.982H93.163V45Zm38.223-6.967a2.112,2.112,0,0,1-1.662,2.06V15.148a1.47,1.47,0,0,0-1.47-1.47H58.071a1.47,1.47,0,0,0-1.47,1.47V40.092a2.112,2.112,0,0,1-1.662-2.06V5.05A2.112,2.112,0,0,1,57.049,2.94H95.656A2.112,2.112,0,0,1,97.765,5.05Z"/><path class="a" d="M125.9,278a3.9,3.9,0,1,0,3.9,3.9A3.9,3.9,0,0,0,125.9,278Zm0,4.858a.959.959,0,1,1,.959-.959A.96.96,0,0,1,125.9,282.854Z" transform="translate(-61.051 -242.458)"/><path class="a" d="M305.9,278a3.9,3.9,0,1,0,3.9,3.9A3.9,3.9,0,0,0,305.9,278Zm0,4.858a.959.959,0,1,1,.959-.959A.96.96,0,0,1,305.9,282.854Z" transform="translate(-218.04 -242.458)"/></g></svg>