<svg xmlns="http://www.w3.org/2000/svg" width="80.96" height="52.848" viewBox="0 0 80.96 52.848"><defs><style>.a{fill:#fff;}</style></defs><path class="a" d="M80.925,126.4c-.316-1.61-3.106-15.791-3.8-17.862-1.657-4.978-5.639-10.645-10.65-15.159C61.269,88.688,55.87,86,51.668,86H10.786a3.847,3.847,0,0,0-3.842,3.842v6.038H4.113a1.88,1.88,0,1,0,0,3.759h2.83v4.484H1.88a1.88,1.88,0,1,0,0,3.759H6.944v18.885a3.847,3.847,0,0,0,3.842,3.842h4.686a9.685,9.685,0,0,0,19.153,0H51.867a9.685,9.685,0,0,0,19.153,0h6.1a3.847,3.847,0,0,0,3.843-3.842A1.894,1.894,0,0,0,80.925,126.4Zm-7.578-17.28H53.978V90.091C60.84,91.934,70.351,101.064,73.348,109.121Zm-48.3,25.963a5.926,5.926,0,1,1,5.926-5.926A5.932,5.932,0,0,1,25.049,135.084Zm36.395,0a5.926,5.926,0,1,1,5.926-5.926A5.933,5.933,0,0,1,61.444,135.084Zm15.581-8.238H70.848a9.684,9.684,0,0,0-18.808,0H34.453a9.684,9.684,0,0,0-18.808,0H10.786a.083.083,0,0,1-.083-.083V107.879H33.739a1.88,1.88,0,1,0,0-3.759H10.7V99.636h10.6a1.88,1.88,0,0,0,0-3.759H10.7V89.839a.083.083,0,0,1,.083-.083H50.219V111a1.88,1.88,0,0,0,1.88,1.88H74.321c.8,3.655,1.9,9.513,2.837,13.85C77.177,126.818,77.122,126.846,77.025,126.846Z" transform="translate(0 -85.996)"/></svg>