<svg xmlns="http://www.w3.org/2000/svg" width="50" height="50" viewBox="0 0 50 50"><defs><style>.a{fill:#fe611a;}</style></defs><g transform="translate(4.167 27.188)"><path class="a" d="M9.058,31.7H3.042A1.042,1.042,0,0,1,2,30.654V14.092a1.042,1.042,0,0,1,2.083,0V29.612H9.058a1.042,1.042,0,1,1,0,2.083Z" transform="translate(-2 -13.05)"/></g><g transform="translate(18.75 20.833)"><path class="a" d="M24.625,35H10.042a1.042,1.042,0,1,1,0-2.083H23.583V12.083H18.375a1.042,1.042,0,0,1,0-2.083h6.25a1.042,1.042,0,0,1,1.042,1.042V33.958A1.042,1.042,0,0,1,24.625,35Z" transform="translate(-9 -10)"/></g><g transform="translate(33.333 28.229)"><path class="a" d="M31.625,31.154H27.458a1.042,1.042,0,0,1,0-2.083h3.125v-7.25A6.194,6.194,0,0,0,24.4,15.633H18.083V29.071h1.042a1.042,1.042,0,1,1,0,2.083H17.042A1.042,1.042,0,0,1,16,30.112V14.592a1.042,1.042,0,0,1,1.042-1.042H24.4a8.28,8.28,0,0,1,8.271,8.271v8.292A1.042,1.042,0,0,1,31.625,31.154Z" transform="translate(-16 -13.55)"/></g><g transform="translate(10.417 39.583)"><path class="a" d="M10.208,29.417a5.208,5.208,0,1,1,5.208-5.208A5.216,5.216,0,0,1,10.208,29.417Zm0-8.333a3.125,3.125,0,1,0,3.125,3.125A3.129,3.129,0,0,0,10.208,21.083Z" transform="translate(-5 -19)"/></g><g transform="translate(35.417 39.583)"><path class="a" d="M22.208,29.417a5.208,5.208,0,1,1,5.208-5.208A5.216,5.216,0,0,1,22.208,29.417Zm0-8.333a3.125,3.125,0,1,0,3.125,3.125A3.129,3.129,0,0,0,22.208,21.083Z" transform="translate(-17 -19)"/></g><g transform="translate(0 6.975)"><path class="a" d="M4.248,21.373H3.125A3.129,3.129,0,0,1,0,18.248V6.473A3.129,3.129,0,0,1,3.125,3.348H4.248A3.129,3.129,0,0,1,7.373,6.473V18.248A3.129,3.129,0,0,1,4.248,21.373ZM3.125,5.431A1.042,1.042,0,0,0,2.083,6.473V18.248A1.042,1.042,0,0,0,3.125,19.29H4.248A1.042,1.042,0,0,0,5.29,18.248V6.473A1.042,1.042,0,0,0,4.248,5.431Z" transform="translate(0 -3.348)"/></g><g transform="translate(5.287 0)"><path class="a" d="M16.059,25H14.234C6.49,25,3.08,22.4,2.938,22.287a1.042,1.042,0,0,1,1.285-1.64c.023.017,3.065,2.269,10.01,2.269h1.825a2.935,2.935,0,0,0,2.9-2.46l1.162-6.975a2.946,2.946,0,0,0-2.9-3.429H11.244a1.041,1.041,0,0,1-.867-1.619A6.793,6.793,0,0,0,11.2,5.025c0-2.142-.89-2.942-1.45-2.942a.585.585,0,0,0-.219.023c0,.013-.233.31-.233,1.925,0,4.067-5.015,6.783-5.227,6.9A1.042,1.042,0,0,1,3.09,9.09c1.148-.615,4.125-2.725,4.125-5.06C7.215,2.621,7.215,0,9.751,0c1.7,0,3.533,1.573,3.533,5.027a9.725,9.725,0,0,1-.448,2.944h4.385a5.029,5.029,0,0,1,4.958,5.854L21.017,20.8A5.009,5.009,0,0,1,16.059,25Z" transform="translate(-2.538 0)"/></g></svg>