<svg xmlns="http://www.w3.org/2000/svg" width="50" height="35.598" viewBox="0 0 50 35.598"><defs><style>.a{fill:#fe611a;}</style></defs><path class="a" d="M47.842,71.734H2.158A2.161,2.161,0,0,0,0,73.892v31.281a2.161,2.161,0,0,0,2.158,2.158H47.842A2.161,2.161,0,0,0,50,105.173V73.892A2.161,2.161,0,0,0,47.842,71.734ZM2.309,74.043H38.046v30.98H2.309Zm45.382,30.98H40.355V74.043h7.336Z" transform="translate(0 -71.734)"/><path class="a" d="M427.154,220.666a1.154,1.154,0,0,0,1.154-1.154v-4.819a1.154,1.154,0,1,0-2.309,0v4.819A1.154,1.154,0,0,0,427.154,220.666Z" transform="translate(-383.236 -199.304)"/><path class="a" d="M71.07,156.489H69.14l-5.977-5c1.41-2.258,3.113-5.357,3.113-7.162a5.764,5.764,0,1,0-11.527,0c0,1.733,1.57,4.661,2.944,6.89l-5.345,4.321-6.681-7.847a1.153,1.153,0,0,0,.559-.988v-3.915a1.154,1.154,0,0,0-1.154-1.154H41.155A1.154,1.154,0,0,0,40,142.787V146.7a1.154,1.154,0,0,0,1.154,1.154h1.62l8.544,10.034a1.154,1.154,0,0,0,1.6.149l6.028-4.873c.27.4.487.711.618.9a1.155,1.155,0,0,0,1.886,0c.1-.143.251-.358.438-.632L66.2,157a1.15,1.15,0,0,0-.2.645v3.915a1.154,1.154,0,0,0,1.154,1.154H71.07a1.154,1.154,0,0,0,1.154-1.154v-3.915A1.154,1.154,0,0,0,71.07,156.489ZM42.31,143.941h1.606v1.606H42.31Zm18.2,7.4c-1.657-2.534-3.455-5.759-3.455-7.015a3.455,3.455,0,1,1,6.909,0C63.966,145.581,62.168,148.806,60.512,151.341Zm9.4,9.064H68.31V158.8h1.606Z" transform="translate(-35.985 -131.853)"/></svg>