<svg xmlns="http://www.w3.org/2000/svg" width="43.2" height="27" viewBox="0 0 43.2 27"><defs><style>.a{fill:#fe611a;}</style></defs><path class="a" d="M27.145,16.066a11.451,11.451,0,0,1,.221,2.247C27.366,26.03,22.191,31.5,14.4,31.5a13.5,13.5,0,0,1,0-27,12.9,12.9,0,0,1,9.043,3.536l-3.665,3.518A7.58,7.58,0,0,0,14.4,9.473a8.529,8.529,0,0,0,0,17.055c5.341,0,7.349-3.849,7.662-5.82H14.4V16.066H27.145Zm13.036.453V12.6H36.244v3.919H32.325v3.938h3.919v3.919h3.938V20.456H44.1V16.519H40.181Z" transform="translate(-0.9 -4.5)"/></svg>