<svg xmlns="http://www.w3.org/2000/svg" width="76.273" height="62.002" viewBox="0 0 76.273 62.002"><defs><style>.a{fill:#fff;}</style></defs><path class="a" d="M71.638,88.818a3.956,3.956,0,0,0-.965.121c-5.62,1.415-12.053,2.9-17.161,3.223-.247.016-.558.023-.926.023-3.892,0-10.048-.719-11.165-1.3a4.145,4.145,0,0,1-1.6-1.412h8.849A4.8,4.8,0,0,0,53.34,86.4H71.051a4.206,4.206,0,0,0,4.2-4.2V50.256a4.206,4.206,0,0,0-4.2-4.2H34.272a4.206,4.206,0,0,0-4.2,4.2V77.267c-3.822.129-9.1,1.229-12.457,4-1.35,1.115-2.323,1.876-3.105,2.487-.506.4-.943.737-1.354,1.074-1.659,1.362-3.092,2.539-11.372,2.539A1.782,1.782,0,0,0,0,89.153v17.121a1.782,1.782,0,0,0,2.382,1.678c7.063-2.529,8.322-2.9,11.363-3.787l.273-.08c.253-.074.5-.149.739-.222a13.511,13.511,0,0,1,4.592-.766,52.722,52.722,0,0,1,9.739,1.283c8.552,1.713,12.672,2.464,16.233,2.464h0a44.6,44.6,0,0,0,6.4-.587c5.091-.717,15.1-4.059,20.207-6.747,1.626-.856,4.347-2.288,4.347-5.345v-.116C76.273,91.575,74.37,88.818,71.638,88.818Zm-23.053-39.2h8.152V64.425H48.585Zm-14.314,0h10.75V66.207A1.782,1.782,0,0,0,46.8,67.988H58.519A1.782,1.782,0,0,0,60.3,66.207V49.618h10.75a.639.639,0,0,1,.638.638V82.2a.639.639,0,0,1-.638.638H53.4a4.8,4.8,0,0,0-4.435-3.715c-2.132-.138-5.524-.549-8.8-.947-2.395-.291-4.683-.568-6.525-.748V50.256A.638.638,0,0,1,34.272,49.618ZM72.709,94.166c0,.694-.571,1.206-2.443,2.191-4.741,2.5-14.352,5.711-19.044,6.371a41.812,41.812,0,0,1-5.9.552c-3.062,0-6.564-.6-15.533-2.395A55.85,55.85,0,0,0,19.35,99.533a17.059,17.059,0,0,0-5.631.921c-.229.07-.46.14-.7.211l-.273.08c-2.732.8-4.058,1.187-9.181,3V90.915c7.431-.171,9.562-1.449,11.851-3.328.378-.31.8-.639,1.287-1.02.8-.624,1.794-1.4,3.181-2.547,2.677-2.212,7.429-3.2,10.95-3.2.405,0,.789.014,1.142.041,1.922.148,4.755.491,7.754.855,3.329.4,6.771.821,9,.966a1.288,1.288,0,0,1,1.245,1.264c.008.124.017.692.021,1.13,0,.567-.794.831-1.33.831H37.493a1.782,1.782,0,0,0-1.78,1.694,7.188,7.188,0,0,0,4.054,6.439c2.295,1.2,10.1,1.711,12.819,1.711.442,0,.828-.01,1.148-.03,5.4-.337,12.031-1.869,17.809-3.323a.388.388,0,0,1,.1-.013c.4,0,1.071.808,1.071,1.668v.116Z" transform="translate(0 -46.054)"/></svg>