<svg xmlns="http://www.w3.org/2000/svg" width="50.001" height="50" viewBox="0 0 50.001 50"><defs><style>.a{fill:#fe611a;}</style></defs><g transform="translate(0 0)"><g transform="translate(4.167 25.104)"><path class="a" d="M9.058,32.779H3.042A1.042,1.042,0,0,1,2,31.738V13.092a1.042,1.042,0,0,1,2.083,0V30.7H9.058a1.042,1.042,0,1,1,0,2.083Z" transform="translate(-2 -12.05)"/></g><g transform="translate(18.75 20.833)"><path class="a" d="M24.625,35H10.042a1.042,1.042,0,1,1,0-2.083H23.583V12.083H10.042a1.042,1.042,0,1,1,0-2.083H24.625a1.042,1.042,0,0,1,1.042,1.042V33.959A1.042,1.042,0,0,1,24.625,35Z" transform="translate(-9 -10)"/></g><g transform="translate(33.334 28.229)"><path class="a" d="M31.625,31.154H27.458a1.042,1.042,0,0,1,0-2.083h3.125v-7.25A6.194,6.194,0,0,0,24.4,15.633H18.083V29.071h1.042a1.042,1.042,0,1,1,0,2.083H17.042A1.042,1.042,0,0,1,16,30.113V14.592a1.042,1.042,0,0,1,1.042-1.042H24.4a8.28,8.28,0,0,1,8.271,8.271v8.292A1.042,1.042,0,0,1,31.625,31.154Z" transform="translate(-16 -13.55)"/></g><g transform="translate(10.417 39.583)"><path class="a" d="M10.208,29.417a5.208,5.208,0,1,1,5.208-5.208A5.216,5.216,0,0,1,10.208,29.417Zm0-8.333a3.125,3.125,0,1,0,3.125,3.125A3.129,3.129,0,0,0,10.208,21.083Z" transform="translate(-5 -19)"/></g><g transform="translate(35.417 39.583)"><path class="a" d="M22.208,29.417a5.208,5.208,0,1,1,5.208-5.208A5.216,5.216,0,0,1,22.208,29.417Zm0-8.333a3.125,3.125,0,1,0,3.125,3.125A3.129,3.129,0,0,0,22.208,21.083Z" transform="translate(-17 -19)"/></g><g transform="translate(0 0)"><path class="a" d="M10.417,25A1.039,1.039,0,0,1,10,24.912c-.408-.177-10-4.467-10-13.231V4.314a1.041,1.041,0,0,1,.7-.983L10.073.058a1.051,1.051,0,0,1,.688,0l9.375,3.273a1.041,1.041,0,0,1,.7.983v7.367c0,8.767-9.592,13.054-10,13.231A1.039,1.039,0,0,1,10.417,25ZM2.083,5.054v6.627c0,6.469,6.59,10.238,8.333,11.121,1.74-.885,8.333-4.671,8.333-11.121V5.054L10.417,2.146Z" transform="translate(0 0)"/></g><g transform="translate(5.113 7.933)"><path class="a" d="M6.906,12.06a.489.489,0,0,1-.056,0,1.041,1.041,0,0,1-.769-.4L2.672,7.25A1.042,1.042,0,1,1,4.32,5.975L6.993,9.431l5.129-5.306a1.042,1.042,0,1,1,1.5,1.448L7.654,11.743a1.043,1.043,0,0,1-.748.317Z" transform="translate(-2.454 -3.808)"/></g></g></svg>