<svg xmlns="http://www.w3.org/2000/svg" width="95.181" height="67.765" viewBox="0 0 95.181 67.765"><defs><style>.a{fill:#fff;}</style></defs><path class="a" d="M91.073,71.734H4.109A4.113,4.113,0,0,0,0,75.843V135.39A4.113,4.113,0,0,0,4.109,139.5H91.073a4.113,4.113,0,0,0,4.109-4.109V75.843A4.113,4.113,0,0,0,91.073,71.734ZM4.4,76.129h68.03V135.1H4.4ZM90.786,135.1H76.821V76.129H90.786Z" transform="translate(0 -71.734)"/><path class="a" d="M428.2,227.107a2.2,2.2,0,0,0,2.2-2.2v-9.173a2.2,2.2,0,1,0-4.4,0v9.173A2.2,2.2,0,0,0,428.2,227.107Z" transform="translate(-344.593 -186.441)"/><path class="a" d="M99.145,172.688H95.47l-11.378-9.52c2.684-4.3,5.926-10.2,5.926-13.634a10.972,10.972,0,1,0-21.943,0c0,3.3,2.989,8.872,5.6,13.116L63.5,170.875,50.784,155.938a2.194,2.194,0,0,0,1.065-1.88V146.6a2.2,2.2,0,0,0-2.2-2.2H42.2a2.2,2.2,0,0,0-2.2,2.2v7.453a2.2,2.2,0,0,0,2.2,2.2h3.083l16.264,19.1a2.2,2.2,0,0,0,3.055.284l11.474-9.276c.514.762.926,1.354,1.176,1.707a2.2,2.2,0,0,0,3.59,0c.191-.271.479-.682.834-1.2l8.194,6.791a2.19,2.19,0,0,0-.375,1.228v7.453a2.2,2.2,0,0,0,2.2,2.2h7.453a2.2,2.2,0,0,0,2.2-2.2v-7.453A2.2,2.2,0,0,0,99.145,172.688ZM44.4,148.8h3.058v3.058H44.4Zm34.65,14.085c-3.154-4.824-6.576-10.962-6.576-13.354a6.576,6.576,0,1,1,13.153,0C85.622,151.924,82.2,158.062,79.046,162.887Zm17.9,17.254H93.89v-3.058h3.058Z" transform="translate(-32.357 -125.791)"/></svg>