<svg xmlns="http://www.w3.org/2000/svg" width="61.927" height="62.001" viewBox="0 0 61.927 62.001"><defs><style>.a{fill:#fff;}</style></defs><g transform="translate(-0.305)"><g transform="translate(36.096 0.035)"><path class="a" d="M310.259.456a5.558,5.558,0,0,0-6.883,5.39V37.389a13.07,13.07,0,0,0,4.582,24.866.909.909,0,1,0,.133-1.813,11.252,11.252,0,0,1-3.459-21.62.909.909,0,0,0,.562-.84V5.846a3.737,3.737,0,0,1,4.627-3.625.909.909,0,0,0,.438-1.765Z" transform="translate(-295.86 -0.291)"/></g><g transform="translate(48.255 2.172)"><path class="a" d="M402.731,52.9V21.354a5.518,5.518,0,0,0-.887-3,.909.909,0,1,0-1.527.987c.909,1.407.488,2.573.6,4.752h-3.734a.909.909,0,0,0,0,1.818h3.734V31h-3.734a.909.909,0,0,0,0,1.818h3.734v5.094h-3.734a.909.909,0,0,0,0,1.818h3.734v5.093h-3.734a.909.909,0,0,0,0,1.818h3.734v6.845a.909.909,0,0,0,.562.84,11.254,11.254,0,0,1-1.9,21.395.909.909,0,1,0,.386,1.777,13.072,13.072,0,0,0,2.769-24.6Z" transform="translate(-396.27 -17.935)"/></g><g transform="translate(40.944 36.088)"><path class="a" d="M346.4,302.993v-2.839a2.146,2.146,0,0,0-2.143-2.143h-.279a2.146,2.146,0,0,0-2.143,2.143v2.839a8.218,8.218,0,1,0,7.55,14.2.909.909,0,0,0-1.167-1.395,6.4,6.4,0,1,1-5.3-11.2.909.909,0,0,0,.739-.893v-3.556a.33.33,0,0,1,.325-.325h.279a.33.33,0,0,1,.325.325v3.555a.909.909,0,0,0,.739.893,6.407,6.407,0,0,1,4.708,8.743.909.909,0,0,0,1.678.7A8.229,8.229,0,0,0,346.4,302.993Z" transform="translate(-335.9 -298.011)"/></g><g transform="translate(0.305)"><g transform="translate(0)"><path class="a" d="M39.953,18.321H34.981l2.377-1.87a3.159,3.159,0,0,0-3.842-5.014l-5.808,3.987,3.968-5.83a3.158,3.158,0,0,0-5.011-3.847L24.943,7.937V3.158a3.159,3.159,0,0,0-6.317,0V8.131l-1.87-2.377A3.159,3.159,0,0,0,11.741,9.6l3.875,5.676L9.9,11.434a3.158,3.158,0,0,0-3.844,5.013l2.383,1.875H3.464a3.159,3.159,0,1,0,0,6.317H8.242L6.059,26.356A3.158,3.158,0,0,0,9.9,31.374l5.975-4-4.125,5.828a3.158,3.158,0,0,0,5.005,3.854l1.875-2.383v4.972a3.159,3.159,0,1,0,6.317,0V34.87l1.718,2.183a3.158,3.158,0,0,0,5.01-3.847l-4.237-6,6.082,4.164a3.159,3.159,0,0,0,3.848-5.01l-2.189-1.722h4.779a3.159,3.159,0,0,0,0-6.317Zm0,4.5h-7.4a.91.91,0,0,0-.562,1.624l4.259,3.351a1.347,1.347,0,0,1,.518,1.119,1.33,1.33,0,0,1-1.168,1.268,1.355,1.355,0,0,1-1.032-.3L24.546,23.025a.909.909,0,0,0-1.423.751v.191a.907.907,0,0,0,.167.524c7.3,10.338,6.906,9.78,6.93,9.811a1.34,1.34,0,1,1-2.125,1.633l-3.346-4.253a.909.909,0,0,0-1.624.562v7.4a1.34,1.34,0,1,1-2.681,0v-7.6a.909.909,0,0,0-1.624-.562l-3.5,4.452a1.339,1.339,0,0,1-2.387-.65c-.109-.856-.119-.31,7.268-10.88a.909.909,0,0,0-1.248-1.281l-10.09,6.75A1.342,1.342,0,1,1,7.177,27.79l4.253-3.346a.909.909,0,0,0-.562-1.624h-7.4a1.34,1.34,0,1,1,0-2.681h7.6a.909.909,0,0,0,.562-1.624l-4.452-3.5a1.34,1.34,0,0,1,1.639-2.121c.048.037-.34-.227,9.709,6.518a.909.909,0,0,0,1.257-1.267c-6.839-10.018-6.549-9.6-6.58-9.637a1.34,1.34,0,1,1,2.125-1.633l3.5,4.446a.909.909,0,0,0,1.624-.562v-7.6a1.34,1.34,0,0,1,2.681,0v7.4a.91.91,0,0,0,1.624.562L28.1,6.866a1.346,1.346,0,0,1,1.119-.518,1.331,1.331,0,0,1,1.268,1.168,1.363,1.363,0,0,1-.3,1.034l-6.7,9.851a.909.909,0,0,0,1.266,1.261c10.26-7.045,9.821-6.741,9.858-6.77a1.34,1.34,0,1,1,1.633,2.125l-4.446,3.5a.909.909,0,0,0,.562,1.624h7.6a1.34,1.34,0,1,1,0,2.681Z" transform="translate(-0.305)"/></g></g></g></svg>