<svg xmlns="http://www.w3.org/2000/svg" width="39.278" height="50" viewBox="0 0 39.278 50"><defs><style>.a{fill:#fe611a;}</style></defs><g transform="translate(-51.999)"><path class="a" d="M87.205,0H56.071A4.077,4.077,0,0,0,52,4.072v26.6a4.077,4.077,0,0,0,3.711,4.055v1.563H54.68a1.185,1.185,0,0,0-1.186,1.186v4.639A1.185,1.185,0,0,0,54.68,43.3h2.062v5.516A1.185,1.185,0,0,0,57.927,50h4.536a1.185,1.185,0,0,0,1.186-1.186V43.3H79.628v5.516A1.185,1.185,0,0,0,80.813,50H85.35a1.185,1.185,0,0,0,1.186-1.186V43.3H88.6a1.185,1.185,0,0,0,1.186-1.186V37.474A1.185,1.185,0,0,0,88.6,36.289H87.566V34.725a4.077,4.077,0,0,0,3.711-4.055V4.072A4.077,4.077,0,0,0,87.205,0ZM61.277,47.629H59.112V43.3h2.165Zm22.887,0H82V43.3h2.165Zm1.031-23.4H58.082V13.4H85.2Zm2.216,16.7H55.865V38.66H87.411v2.268Zm-29.33-4.639V26.6H85.2v9.691ZM88.906,30.67a1.7,1.7,0,0,1-1.34,1.662V12.216a1.185,1.185,0,0,0-1.186-1.186H56.9a1.185,1.185,0,0,0-1.186,1.186V32.332a1.7,1.7,0,0,1-1.34-1.662V4.072a1.7,1.7,0,0,1,1.7-1.7H87.205a1.7,1.7,0,0,1,1.7,1.7Z"/><path class="a" d="M125.143,278a3.144,3.144,0,1,0,3.144,3.144A3.148,3.148,0,0,0,125.143,278Zm0,3.918a.773.773,0,1,1,.773-.773A.774.774,0,0,1,125.143,281.914Z" transform="translate(-62.783 -249.336)"/><path class="a" d="M305.142,278a3.144,3.144,0,1,0,3.144,3.144A3.148,3.148,0,0,0,305.142,278Zm0,3.918a.773.773,0,1,1,.773-.773A.774.774,0,0,1,305.142,281.914Z" transform="translate(-224.226 -249.336)"/></g></svg>