<svg xmlns="http://www.w3.org/2000/svg" width="51.818" height="50" viewBox="0 0 51.818 50"><defs><style>.a{fill:#fe611a;}</style></defs><path class="a" d="M51.785,33.413a26.273,26.273,0,0,0-24.64-21.706V9.687a1.237,1.237,0,1,0-2.474,0v2.02A26.273,26.273,0,0,0,.018,33.49h0a1.237,1.237,0,0,0,2.4.582,5.259,5.259,0,0,1,9.98.015,1.237,1.237,0,0,0,2.349,0,5.259,5.259,0,0,1,9.925-.168V52.842a3.116,3.116,0,0,1-3.012,3.133,3.016,3.016,0,0,1-3.012-3.012,1.237,1.237,0,0,0-2.474,0,5.493,5.493,0,0,0,5.487,5.487,5.376,5.376,0,0,0,3.9-1.685,5.637,5.637,0,0,0,1.59-3.923V33.9a5.259,5.259,0,0,1,9.919.186,1.237,1.237,0,0,0,2.349,0,5.259,5.259,0,0,1,9.985,0,1.237,1.237,0,0,0,1.135.848h.048a1.238,1.238,0,0,0,1.2-1.523Zm-7.379-5.406a7.72,7.72,0,0,0-6.167,3.063,7.739,7.739,0,0,0-12.334,0,7.739,7.739,0,0,0-12.334,0A7.746,7.746,0,0,0,3.91,28.838a23.818,23.818,0,0,1,44,0A7.727,7.727,0,0,0,44.405,28.007Z" transform="translate(0 -8.45)"/></svg>