<svg xmlns="http://www.w3.org/2000/svg" width="59.302" height="62.001" viewBox="0 0 59.302 62.001"><defs><style>.a{fill:#fff;}</style></defs><g transform="translate(-10.298)"><path class="a" d="M69.564,60.161,62.325,15.429a1.507,1.507,0,0,0-1.488-1.266H54.055V1.507A1.507,1.507,0,0,0,52.548,0H27.306A1.507,1.507,0,0,0,25.8,1.507V14.163h-6.74a1.507,1.507,0,0,0-1.488,1.266L10.318,60.254A1.507,1.507,0,0,0,11.806,62H68.093a1.509,1.509,0,0,0,1.47-1.84ZM28.813,3.014H51.041V14.163H28.813ZM13.576,58.987l6.766-41.81H59.554l6.766,41.81Z" transform="translate(0)"/><path class="a" d="M153.527,210.965l-.093-.093a1.311,1.311,0,0,0-1.853,0l-6.682,6.682v-5.8a1.311,1.311,0,0,0-1.311-1.311h-.131a1.311,1.311,0,0,0-1.311,1.311v12.713a1.311,1.311,0,0,0,1.311,1.311h.131a1.311,1.311,0,0,0,1.311-1.311v-3.019l2.782-2.782,3.695,5.669a1.311,1.311,0,0,0,1.8.422l.111-.069a1.311,1.311,0,0,0,.422-1.8l-4.044-6.205,3.858-3.858A1.311,1.311,0,0,0,153.527,210.965Z" transform="translate(-114.569 -182.862)"/><path class="a" d="M251.4,240.516h-.131a1.311,1.311,0,0,0-1.244.9,3.913,3.913,0,0,0-2.631-1.064c-2.5,0-4.53,2.559-4.53,5.715s2.028,5.715,4.53,5.715a3.894,3.894,0,0,0,2.564-1v3.762l0-2.446c0,1.674-.964,3.031-2.638,3.031a2.784,2.784,0,0,1-2.676-2.289,1.48,1.48,0,0,0-1.356-1.092,1.351,1.351,0,0,0-1.383,1.384,5.247,5.247,0,0,0,5.414,4.742,5.454,5.454,0,0,0,5.384-5.777h.01V241.826A1.311,1.311,0,0,0,251.4,240.516Zm-4.006,8.851c-1.344,0-2.433-1.478-2.433-3.3s1.089-3.3,2.433-3.3,2.433,1.478,2.433,3.3S248.736,249.367,247.393,249.367Z" transform="translate(-201.246 -208.851)"/></g></svg>