<svg xmlns="http://www.w3.org/2000/svg" width="77.089" height="79.648" viewBox="0 0 77.089 79.648"><defs><style>.a{fill:#fff;}</style></defs><path class="a" d="M84.694,44.557,77.611,31.213a1.881,1.881,0,0,0-1.665-1,1.885,1.885,0,0,0,.036-.366,29.848,29.848,0,1,0-59.7,0,1.872,1.872,0,0,0,.049.422,1.877,1.877,0,0,0-1.208.942L8.045,44.557A1.88,1.88,0,0,0,8.9,47.139l6.117,2.892V63.509A1.88,1.88,0,0,0,16.083,65.2L45.626,79.461a1.866,1.866,0,0,0,1.623,0,.1.1,0,0,0,.012,0L76.8,65.2a1.88,1.88,0,0,0,1.063-1.693V49.961l5.969-2.822a1.88,1.88,0,0,0,.857-2.582ZM46.369,41.052,35.159,36.9c-.216-1.686-.354-3.416-.412-5.168H57.518A46.034,46.034,0,0,1,57,37.112ZM26.16,13.089A29.823,29.823,0,0,0,32.3,17.374a55.7,55.7,0,0,0-1.311,10.593H20.115A25.969,25.969,0,0,1,26.16,13.089ZM72.153,27.968H61.284a55.683,55.683,0,0,0-1.311-10.593,29.82,29.82,0,0,0,6.136-4.286A25.969,25.969,0,0,1,72.153,27.968Zm-14.632,0H34.747A52.4,52.4,0,0,1,35.8,18.932a29.853,29.853,0,0,0,10.333,1.829,29.855,29.855,0,0,0,10.333-1.829A52.368,52.368,0,0,1,57.521,27.968Zm1.435-14.324a35.527,35.527,0,0,0-1.72-4.379A24.858,24.858,0,0,0,54.9,5.276a26.111,26.111,0,0,1,8.593,5.112A26.109,26.109,0,0,1,58.956,13.644ZM53.84,10.88a32.438,32.438,0,0,1,1.686,4.387A26.069,26.069,0,0,1,46.135,17a26.072,26.072,0,0,1-9.391-1.734,32.426,32.426,0,0,1,1.686-4.386c2.151-4.524,4.96-7.119,7.705-7.119S51.689,6.356,53.84,10.88ZM35.033,9.265a35.565,35.565,0,0,0-1.72,4.379,26.108,26.108,0,0,1-4.532-3.256,26.117,26.117,0,0,1,8.593-5.112A24.866,24.866,0,0,0,35.033,9.265ZM30.986,31.729q.057,1.871.229,3.706l-10-3.706Zm30.3,0H71.525l-10.532,3.9C61.134,34.41,61.235,33.144,61.283,31.729Zm-43.6,2.7,26.162,9.7L38.114,56.788,12.29,44.58Zm1.1,27.9V51.808l19.455,9.2a1.88,1.88,0,0,0,2.517-.925l3.81-8.425V74.772Zm55.326,0L48.324,74.772V51.982l3.662,8.1a1.88,1.88,0,0,0,2.517.925l19.6-9.267v10.59ZM54.625,56.788,48.9,44.125l26.162-9.7L80.448,44.58Z" transform="translate(-7.825)"/></svg>